<?xml version="1.0" standalone="no"?>
<!DOCTYPE svg PUBLIC "-//W3C//DTD SVG 20010904//EN"
 "http://www.w3.org/TR/2001/REC-SVG-20010904/DTD/svg10.dtd">
<svg version="1.0" xmlns="http://www.w3.org/2000/svg"
 width="320.000000pt" height="320.000000pt" viewBox="0 0 320.000000 320.000000"
 preserveAspectRatio="xMidYMid meet">
<metadata>
Created by potrace 1.14, written by Peter Selinger 2001-2017
</metadata>
<g transform="translate(0.000000,320.000000) scale(0.100000,-0.100000)"
fill="#000000" stroke="none">
<path d="M1350 3197 c-5 -5 -42 -12 -125 -22 -205 -26 -456 -101 -652 -196
-78 -38 -245 -134 -276 -159 -7 -5 -46 -36 -88 -69 -42 -32 -106 -88 -142
-123 l-67 -65 0 -965 0 -965 68 -64 c168 -159 288 -241 507 -348 152 -74 341
-141 465 -165 14 -2 45 -9 70 -14 25 -6 68 -13 95 -17 28 -3 66 -9 85 -13 46
-9 493 -9 545 0 22 4 58 10 80 13 350 51 687 187 955 385 114 85 182 148 283
260 l47 53 0 875 0 874 -26 32 c-131 157 -323 314 -509 415 -33 18 -64 36 -70
40 -22 17 -206 91 -305 124 -114 38 -299 82 -395 93 -33 3 -69 9 -80 12 -25 7
-459 15 -465 9z"/>
</g>
</svg>
